<?xml version="1.0" standalone="no"?>
<!DOCTYPE svg PUBLIC "-//W3C//DTD SVG 20010904//EN"
 "http://www.w3.org/TR/2001/REC-SVG-20010904/DTD/svg10.dtd">
<svg version="1.0" xmlns="http://www.w3.org/2000/svg"
 width="1024.000000pt" height="1024.000000pt" viewBox="0 0 1024.000000 1024.000000"
 preserveAspectRatio="xMidYMid meet">
<rect width="100%" height="100%" fill="white"/>
<g transform="translate(0.000000,1024.000000) scale(0.100000,-0.100000)"
fill="#000000" stroke="none">
<path d="M590 5110 l0 -4110 4538 2 4537 3 -2 4105 -2 4105 -4536 3 -4535 2 0
-4110z m8178 14 l2 -3182 -692 -7 c-771 -7 -6583 -3 -6592 5 -3 3 -6 1434 -8
3180 l-3 3175 1420 5 c781 3 2421 5 3645 5 l2225 0 3 -3181z"/>
<path d="M2217 7483 c-4 -3 -7 -199 -7 -433 0 -345 3 -430 13 -439 10 -8 651
-11 2328 -13 l2314 -3 50 -25 c69 -34 157 -123 191 -195 25 -54 28 -71 28
-170 1 -105 -1 -113 -32 -177 -57 -116 -147 -187 -272 -215 -39 -8 -240 -12
-707 -12 l-652 -1 -15 -27 c-8 -16 -37 -62 -66 -103 -28 -41 -90 -133 -137
-205 -195 -292 -316 -473 -356 -529 l-42 -59 -5 -615 -5 -615 -708 -2 c-389
-1 -710 1 -713 6 -2 5 66 121 153 260 87 138 194 309 238 380 98 157 185 291
425 656 555 846 539 821 540 841 0 9 -264 12 -1285 12 l-1285 0 2 -457 3 -458
423 -3 c263 -1 422 -6 422 -12 0 -15 -132 -218 -501 -770 l-344 -515 0 -410 0
-410 435 -7 c239 -4 1031 -4 1760 -1 l1325 5 5 1056 5 1057 309 3 c228 2 312
-1 323 -10 22 -18 188 -227 299 -378 55 -74 170 -229 256 -345 85 -115 161
-220 167 -232 8 -15 11 -188 11 -587 l0 -566 455 0 c250 0 455 3 455 8 3 579
-2 1457 -8 1466 -5 6 -74 99 -153 206 -79 107 -215 289 -301 405 -87 115 -158
215 -158 222 0 7 26 30 58 52 214 146 409 384 498 606 75 187 94 289 94 500 0
185 -11 269 -57 407 -72 220 -222 447 -385 586 -116 97 -269 189 -382 227
-141 47 -47 45 -2602 45 -1320 0 -2404 -3 -2407 -7z"/>
</g>
</svg>
