<?xml version="1.0" encoding="UTF-8"?>
<svg version="1.1" xmlns="http://www.w3.org/2000/svg" width="2000" height="2000">
<path d="M0 0 C660 0 1320 0 2000 0 C2000 660 2000 1320 2000 2000 C1340 2000 680 2000 0 2000 C0 1340 0 680 0 0 Z " fill="#FEFEFF" transform="translate(0,0)"/>
<path d="M0 0 C17.82 0 35.64 0 54 0 C54 26.4 54 52.8 54 80 C60.435 75.05 60.435 75.05 67 70 C86.86409161 58.7011589 106.70340728 56.28185765 129 61 C130.26199219 61.25652344 131.52398438 61.51304687 132.82421875 61.77734375 C160.37331982 67.77631609 184.1240135 85.38065616 199.453125 108.84375 C213.56422873 131.32087214 218.44572575 159.96621971 212.94140625 186.05859375 C211.67420084 190.86781271 209.98486337 195.44416702 208 200 C207.6896582 200.72445313 207.37931641 201.44890625 207.05957031 202.1953125 C194.34559753 231.12251663 171.68042397 249.4985273 143 261 C142.23196045 261.32242676 141.4639209 261.64485352 140.67260742 261.97705078 C131.10011927 265.64095188 121.33881718 266.53498947 111.17138672 266.50097656 C109.1323517 266.50000351 107.09709087 266.54182479 105.05859375 266.5859375 C87.06888437 266.75057858 71.66133541 259.65643907 58.80541992 247.18383789 C52.36481173 240.72962347 52.36481173 240.72962347 51 238 C50.67 245.26 50.34 252.52 50 260 C33.5 260 17 260 0 260 C0 174.2 0 88.4 0 0 Z " fill="#1665FF" transform="translate(1298,872)"/>
<path d="M0 0 C2.45915089 2.17799797 4.83214968 4.41768024 7.1875 6.70703125 C7.87199219 7.32964844 8.55648437 7.95226562 9.26171875 8.59375 C26.65511739 24.89365403 37.3109891 49.66934409 38.29538727 73.29650116 C38.4663851 80.69048451 38.41715465 88.08517425 38.3828125 95.48046875 C38.37907562 97.85942465 38.37623184 100.23838209 38.37423706 102.61734009 C38.36665374 108.83476113 38.34705156 115.05208657 38.3248291 121.26947021 C38.30062921 128.75286891 38.29156443 136.23629982 38.27992249 143.71972656 C38.2606235 155.04889432 38.22226393 166.37785291 38.1875 177.70703125 C21.3575 177.70703125 4.5275 177.70703125 -12.8125 177.70703125 C-13.1425 170.44703125 -13.4725 163.18703125 -13.8125 155.70703125 C-16.101875 158.39859375 -16.101875 158.39859375 -18.4375 161.14453125 C-26.92634134 170.64493577 -37.47424762 177.32341079 -49.8125 180.70703125 C-50.86695313 181.00351563 -51.92140625 181.3 -53.0078125 181.60546875 C-77.17214322 187.6052684 -103.49281311 181.92163785 -124.6875 169.33203125 C-151.81397118 152.54144651 -167.54545615 129.35176508 -175.5703125 98.82421875 C-181.01060368 72.54224868 -174.70889223 46.23504598 -160.8125 23.70703125 C-158.34065701 20.18001418 -155.6572329 16.9372146 -152.8125 13.70703125 C-152.13703125 12.88847656 -151.4615625 12.06992187 -150.765625 11.2265625 C-113.55216548 -32.57395099 -43.71459148 -35.639535 0 0 Z " fill="#1766FF" transform="translate(534.8125,955.29296875)"/>
<path d="M0 0 C18.23561254 15.73873636 30.80852288 37.90413669 34.3515625 61.81640625 C34.60517839 65.65620284 34.60571498 69.4776899 34.57861328 73.32470703 C34.57890533 74.42832077 34.57919739 75.53193451 34.57949829 76.66899109 C34.57811522 80.28331621 34.56260233 83.89743005 34.546875 87.51171875 C34.54314124 90.03091316 34.54029598 92.55010903 34.53829956 95.06930542 C34.53146755 101.00118056 34.51573668 106.93298895 34.49560058 112.8648299 C34.46700667 121.47724892 34.45662738 130.08969381 34.44398499 138.70214844 C34.42464177 150.74029615 34.38629909 162.7782488 34.3515625 174.81640625 C17.5215625 174.81640625 0.6915625 174.81640625 -16.6484375 174.81640625 C-16.9784375 167.88640625 -17.3084375 160.95640625 -17.6484375 153.81640625 C-19.5046875 155.79640625 -21.3609375 157.77640625 -23.2734375 159.81640625 C-36.55622513 173.45699088 -54.32809745 180.61789383 -73.3359375 181.19140625 C-103.98282503 180.15323255 -132.10633616 168.67648385 -153.46875 146.3359375 C-164.6980525 133.35582977 -173.05003846 118.38885429 -177.6484375 101.81640625 C-178.00550781 100.71683594 -178.36257813 99.61726563 -178.73046875 98.484375 C-180.22467944 92.39115621 -179.98288324 86.06363264 -179.96411133 79.82788086 C-179.9609694 77.6510113 -179.98440075 75.47552867 -180.00976562 73.29882812 C-180.1307959 46.78339535 -168.40688501 22.65119515 -150.0859375 3.75390625 C-108.42891072 -37.50670689 -43.75430039 -36.0747108 0 0 Z " fill="#1765FF" transform="translate(1239.6484375,958.18359375)"/>
<path d="M0 0 C17.82 0 35.64 0 54 0 C54.33 24.75 54.66 49.5 55 75 C59.62 72.03 64.24 69.06 69 66 C71.89108068 64.65099194 74.46499947 63.4981114 77.4375 62.5 C78.07880859 62.2628125 78.72011719 62.025625 79.38085938 61.78125 C92.72797039 57.02118609 109.34948518 57.83148634 123 61 C123.87269531 61.19464844 124.74539063 61.38929688 125.64453125 61.58984375 C150.57583832 67.75879089 172.09712749 82.27956425 186 104.0625 C199.57448707 127.01047234 202.78305644 148.47780939 202.48828125 174.8671875 C202.47892723 177.3692249 202.47182341 179.87127161 202.46684265 182.37332153 C202.44797664 188.88019199 202.39905699 195.38648233 202.34332275 201.89312744 C202.282566 209.7420583 202.26011679 217.59117605 202.23105621 225.4402771 C202.18297582 237.29391848 202.08701742 249.14629325 202 261 C184.18 261 166.36 261 148 261 C147.93941406 253.52472656 147.87882813 246.04945313 147.81640625 238.34765625 C147.77589711 233.60351007 147.7351163 228.85936933 147.69335938 224.11523438 C147.62715051 216.59010712 147.56193127 209.06498064 147.50268555 201.53979492 C147.45484157 195.47082572 147.40249249 189.40191037 147.34705925 183.33300591 C147.32672616 181.0210651 147.30799867 178.70910959 147.29092598 176.39714241 C147.26668062 173.15150786 147.23665505 169.90597322 147.20532227 166.66040039 C147.1995668 165.71093033 147.19381134 164.76146027 147.18788147 163.78321838 C147.0202604 148.44278654 143.71735185 133.34927884 132.8984375 121.74609375 C121.69138497 111.29002928 109.81723426 109.30048069 94.9375 109.62109375 C83.7498477 110.21405632 74.41816531 116.11524715 66.875 124.125 C53.80486151 140.47157647 54.54275854 160.71955229 54.48828125 180.53125 C54.4714016 182.86251755 54.45324704 185.19377617 54.43388367 187.52502441 C54.38673426 193.60753592 54.3566993 199.69001126 54.33044434 205.77264404 C54.29517195 213.09934221 54.23826065 220.42590155 54.18505096 227.75248718 C54.10694912 238.83497285 54.05603187 249.91728196 54 261 C36.18 261 18.36 261 0 261 C0 174.87 0 88.74 0 0 Z " fill="#1665FF" transform="translate(765,872)"/>
<path d="M0 0 C11.83841037 9.13904109 21.22267548 21.23032269 24.62109375 36.0234375 C24.95109375 41.3034375 25.28109375 46.5834375 25.62109375 52.0234375 C7.47109375 52.0234375 -10.67890625 52.0234375 -29.37890625 52.0234375 C-30.36890625 46.5784375 -30.36890625 46.5784375 -31.37890625 41.0234375 C-33.81023005 36.26209506 -37.52527758 34.52194734 -42.39453125 32.75 C-50.81972085 30.69884128 -59.66958358 30.95852191 -67.37890625 35.0234375 C-71.81312525 38.84192818 -71.81312525 38.84192818 -73.6875 44.16015625 C-73.91424314 48.64692197 -73.92588388 52.10701814 -71.12890625 55.7734375 C-60.54092223 66.28720668 -44.09357198 68.63634046 -30.00390625 70.8984375 C-9.92520909 74.1810183 8.09250731 81.54107809 20.47265625 98.5703125 C28.43327795 111.19750553 30.05750831 125.85838554 27.13183594 140.46630859 C22.54552084 157.13284599 11.72690939 171.47342722 -3.06640625 180.3359375 C-12.97611379 185.79619186 -24.16506438 190.32370163 -35.37890625 192.0234375 C-36.054375 192.13300781 -36.72984375 192.24257812 -37.42578125 192.35546875 C-62.45339147 195.78078037 -88.04885919 190.30785604 -108.37890625 175.0234375 C-119.4074234 165.73467272 -127.29512217 154.27001025 -130.37890625 140.0234375 C-130.65927734 138.92708984 -130.65927734 138.92708984 -130.9453125 137.80859375 C-131.55001419 133.92433872 -131.37890625 129.95448078 -131.37890625 126.0234375 C-113.55890625 126.0234375 -95.73890625 126.0234375 -77.37890625 126.0234375 C-76.05890625 129.9834375 -74.73890625 133.9434375 -73.37890625 138.0234375 C-68.66710607 143.39269816 -62.69363407 145.56294754 -55.70703125 146.30859375 C-47.05688784 146.58960123 -38.70846818 144.91006869 -31.78515625 139.47265625 C-28.58085125 136.17044194 -27.57559271 132.40024271 -26.94140625 127.9609375 C-27.64443839 123.24057883 -29.65586241 120.43977954 -33.33203125 117.41796875 C-41.53403407 111.61060661 -50.09153174 109.74990938 -59.87890625 108.2109375 C-78.71238965 104.98889978 -95.59406314 98.43429157 -110.37890625 86.0234375 C-111.20648437 85.39501953 -111.20648437 85.39501953 -112.05078125 84.75390625 C-120.21854844 78.45967329 -127.66547196 67.26638536 -129.37890625 57.0234375 C-130.65508824 40.46953394 -127.490012 26.52768459 -117.37890625 13.0234375 C-116.9303125 12.39308594 -116.48171875 11.76273438 -116.01953125 11.11328125 C-104.18712781 -4.16443967 -84.85311956 -11.47333763 -66.37890625 -13.9765625 C-65.39535156 -14.15703125 -64.41179687 -14.3375 -63.3984375 -14.5234375 C-42.00643762 -17.73362118 -17.84506168 -12.1441876 0 0 Z " fill="#1766FF" transform="translate(1650.37890625,945.9765625)"/>
<path d="M0 0 C0.94488281 0.15984375 1.88976562 0.3196875 2.86328125 0.484375 C15.03080324 2.92117237 29.28216526 10.0337939 38 19 C38 19.66 38 20.32 38 21 C38.66 21 39.32 21 40 21 C51.47793478 34.3275799 56 47.53858618 56 65 C38.18 65 20.36 65 2 65 C1.01 60.545 1.01 60.545 0 56 C-2.69903414 50.89111394 -6.14005198 47.30110608 -11.73828125 45.4140625 C-19.71132871 43.95440269 -28.95070165 43.80799069 -36.19140625 47.75 C-39.98217656 50.36997084 -42.52979944 52.61402358 -43.47265625 57.3984375 C-43.740852 61.97839576 -43.57766227 64.152473 -40.91796875 68.0546875 C-37.96048977 71.33774122 -34.64107926 73.23396869 -30.6875 75.125 C-29.63961304 75.63474365 -29.63961304 75.63474365 -28.57055664 76.15478516 C-18.94421574 80.64614322 -9.09810863 82.71675127 1.4375 83.875 C18.64313962 85.96218202 36.62736997 93.74500076 47.8671875 107.2421875 C49.73819374 109.75559932 51.39212564 112.31110331 53 115 C53.51046875 115.83660156 54.0209375 116.67320313 54.546875 117.53515625 C60.51040463 129.17744021 59.84956622 146.02651549 56.03125 158.34765625 C49.01666806 176.38894843 37.12864068 189.27845862 19.5390625 197.5859375 C15.04456635 199.38175164 10.4995906 200.88931899 5.875 202.3125 C5.05193359 202.56733154 4.22886719 202.82216309 3.38085938 203.0847168 C-21.18567813 210.26137561 -47.03453718 205.82522496 -69.1875 193.8125 C-84.75196234 184.28923059 -95.37613221 170.79746014 -99.75 152.9375 C-100.69331889 148.11609234 -101 143.97529062 -101 139 C-82.85 139 -64.7 139 -46 139 C-45.34 141.97 -44.68 144.94 -44 148 C-40.93935428 153.69913342 -37.85913358 155.89135637 -31.9375 158.1875 C-21.95158532 160.75468504 -12.42865899 159.11645238 -3.625 154.0625 C1.08848935 150.35904408 2.6924894 147.2678907 3.5 141.3125 C3.39676651 136.63258199 1.50034055 134.06774384 -1.7421875 130.8125 C-9.41829205 124.65036763 -18.64988972 123.38593692 -28.0625 121.625 C-53.0794111 116.94371121 -76.10479813 107.27382688 -91.60546875 86.19140625 C-93.86630456 82.63866427 -95.54719462 78.94529614 -97 75 C-97.35707031 74.04222656 -97.71414063 73.08445312 -98.08203125 72.09765625 C-101.67978063 59.95716579 -97.90375151 45.15175786 -92.3125 34.125 C-88.91811858 28.43064729 -84.66524769 23.68133475 -80 19 C-79.39671875 18.37351562 -78.7934375 17.74703125 -78.171875 17.1015625 C-68.94945595 8.24002072 -56.269585 2.94718224 -44 0 C-42.60974609 -0.33644531 -42.60974609 -0.33644531 -41.19140625 -0.6796875 C-27.76991757 -3.39749242 -13.34558263 -2.75021254 0 0 Z " fill="#1766FF" transform="translate(689,933)"/>
<path d="M0 0 C17.82 0 35.64 0 54 0 C54 86.13 54 172.26 54 261 C36.18 261 18.36 261 0 261 C0 174.87 0 88.74 0 0 Z " fill="#1665FF" transform="translate(991,872)"/>
<path d="M0 0 C9.24 0 18.48 0 28 0 C28 5.61 28 11.22 28 17 C30.37292236 16.97381592 32.74584473 16.94763184 35.19067383 16.9206543 C43.1492117 16.83672886 51.1077725 16.7821555 59.0666399 16.74093914 C63.87857328 16.71516205 68.69004261 16.68037096 73.50170898 16.62280273 C118.58590425 16.09771879 162.18733543 21.81166551 196.2578125 54.3125 C197.16273438 55.199375 198.06765625 56.08625 199 57 C199.90492188 57.86625 200.80984375 58.7325 201.7421875 59.625 C206.34692041 64.10062825 206.34692041 64.10062825 208 66 C208 66.66 208 67.32 208 68 C162.79 68 117.58 68 71 68 C69.68 65.36 68.36 62.72 67 60 C65.3311344 57.98075616 65.3311344 57.98075616 63.5 56.625 C62.9328125 56.16351562 62.365625 55.70203125 61.78125 55.2265625 C55.57569157 50.95343674 49.36427864 51.33511084 42 52 C36.35188628 53.62907598 32.20516434 58.22698437 29 63 C26.47298517 68.3050003 26.2316647 73.21768276 27 79 C29.19985392 85.13693154 32.67785206 89.34102329 38 93 C39.65 93.66 41.3 94.32 43 95 C43 107.21 43 119.42 43 132 C38.05 132 33.1 132 28 132 C28 141.9 28 151.8 28 162 C18.76 162 9.52 162 0 162 C0 152.1 0 142.2 0 132 C-5.61 132 -11.22 132 -17 132 C-17 94.05 -17 56.1 -17 17 C-11.39 17 -5.78 17 0 17 C0 11.39 0 5.78 0 0 Z " fill="#1866FF" transform="translate(112,862)"/>
<path d="M0 0 C23.43 0 46.86 0 71 0 C71 7.92 71 15.84 71 24 C74.10148437 23.9278125 77.20296875 23.855625 80.3984375 23.78125 C116.183028 23.01257701 151.95801568 22.91212911 187.75 22.9375 C189.57425129 22.93878403 189.57425129 22.93878403 191.43535614 22.94009399 C206.62358519 22.95157078 221.81179319 22.97177032 237 23 C234.72269452 27.72187068 231.53085826 31.15609657 228 35 C227.50886719 35.556875 227.01773438 36.11375 226.51171875 36.6875 C209.92788232 54.51405285 186.71293517 63.95408443 163.75 70.25 C162.4496582 70.61955811 162.4496582 70.61955811 161.12304688 70.99658203 C142.40338525 75.89306619 122.76084955 75.27476611 103.578125 75.1953125 C100.89385652 75.19157306 98.2095988 75.18863183 95.52532959 75.18673706 C89.23962713 75.18058531 82.95399642 75.16426244 76.66832519 75.14403808 C68.79061611 75.1192557 60.91289473 75.10849089 53.03515625 75.09765625 C39.02338198 75.07832485 25.01176368 75.03823707 11 75 C11 56.85 11 38.7 11 20 C7.37 20 3.74 20 0 20 C0 13.4 0 6.8 0 0 Z " fill="#1766FF" transform="translate(84,1058)"/>
<path d="M0 0 C0.87253418 0.00684814 1.74506836 0.01369629 2.64404297 0.02075195 C10.01786402 0.2024771 16.43183242 1.55724915 23.25 4.4375 C24.13945312 4.79972656 25.02890625 5.16195312 25.9453125 5.53515625 C38.56504177 11.22754178 47.11267864 21.63679233 52.42578125 34.234375 C52.69777344 34.96140625 52.96976563 35.6884375 53.25 36.4375 C53.60449219 37.29085937 53.95898438 38.14421875 54.32421875 39.0234375 C58.13276212 53.06844553 56.02499434 68.72503821 49.25 81.4375 C47.18425083 84.76003364 44.91854302 87.58531531 42.25 90.4375 C41.70214844 91.10910156 41.15429688 91.78070312 40.58984375 92.47265625 C33.32436867 100.76008827 20.34556669 107.64855653 9.25 108.4375 C8.62399902 108.48374512 7.99799805 108.52999023 7.35302734 108.57763672 C-9.42814045 109.64667053 -22.77392955 105.37009479 -35.75 94.4375 C-47.01094164 83.31182492 -52.77502722 69.48089152 -53.1875 53.8125 C-53.18409676 39.31300216 -47.22091253 26.4792796 -37.3984375 15.90625 C-26.95129649 5.95659189 -14.50113733 -0.17649875 0 0 Z " fill="#FDFEFF" transform="translate(464.75,980.5625)"/>
<path d="M0 0 C11.57344244 8.84529569 20.84360846 21.25732313 23 36 C23.98326449 53.26385537 20.89268566 68.35742714 9.3125 81.8125 C-0.12671304 91.66396783 -12.69940687 98.66294968 -26.515625 99.3359375 C-43.23357205 99.65599026 -57.28998607 95.52847913 -69.8125 83.8125 C-81.75918256 71.10695376 -85.56234668 56.54658149 -85.2734375 39.6171875 C-84.66285715 24.88466954 -77.03106366 13.15249045 -66.59765625 3.22265625 C-47.67348391 -12.9696055 -20.51947592 -13.60046306 0 0 Z " fill="#FDFEFF" transform="translate(1199,990)"/>
<path d="M0 0 C11.16201124 7.71223659 19.38978259 19.01763615 22.96484375 32.10546875 C25.96340208 48.86211823 23.2593964 64.24850207 13.49609375 78.390625 C4.7835881 89.70959154 -7.21224888 97.28161305 -21.37109375 99.81640625 C-38.05034 101.48214391 -51.57430619 98.12912088 -64.96875 87.81640625 C-75.86789497 78.61049194 -82.12176463 66.90099048 -84.37109375 52.81640625 C-85.48036999 36.3772961 -82.01107282 22.28564365 -71.3046875 9.3125 C-51.99797937 -11.09942219 -24.03493128 -13.95915223 0 0 Z " fill="#FDFEFF" transform="translate(1434.37109375,989.18359375)"/>
<path d="M0 0 C9.2932861 7.51101205 15.31592641 17.41719014 18 29 C18.17313217 29.58980652 18.34626434 30.17961304 18.52464294 30.78729248 C19.09483393 33.44143606 19.11964157 35.87914112 19.11352539 38.59472656 C19.11341209 40.27601654 19.11341209 40.27601654 19.11329651 41.99127197 C19.10813522 43.19555847 19.10297394 44.39984497 19.09765625 45.640625 C19.0962413 46.87794373 19.09482635 48.11526245 19.09336853 49.39007568 C19.0887211 52.67144941 19.07974347 55.95277373 19.06866455 59.23413086 C19.0584152 62.58577011 19.05394859 65.93741148 19.04882812 69.2890625 C19.038651 75.85941434 19.01907523 82.42964383 19 89 C10.42 89 1.84 89 -7 89 C-7.495 84.545 -7.495 84.545 -8 80 C-8.46148438 80.45890625 -8.92296875 80.9178125 -9.3984375 81.390625 C-18.11298875 89.58850325 -27.64297456 92.39609544 -39.42578125 92.27734375 C-53.7785733 91.16362983 -65.82598213 84.10527844 -75.55078125 73.8671875 C-85.78473752 61.8867666 -88.93624875 48.52759714 -88 33 C-86.16725873 19.70001521 -79.3607658 8.44559394 -69 0 C-47.65715319 -15.43835365 -21.62521654 -15.16250815 0 0 Z " fill="#1967FF" transform="translate(1806,1044)"/>
<path d="M0 0 C8.91 0 17.82 0 27 0 C27 32.01 27 64.02 27 97 C18.09 97 9.18 97 0 97 C0 64.99 0 32.98 0 0 Z " fill="#1766FF" transform="translate(1838,1036)"/>
<path d="M0 0 C6.17214471 4.28444409 10.46044994 9.12475813 12.75 16.375 C12.8325 17.24125 12.915 18.1075 13 19 C13.06316406 19.64582031 13.12632813 20.29164062 13.19140625 20.95703125 C13.59801679 28.4465351 11.17022167 34.51214375 7.25 40.8125 C1.21389671 46.68093375 -5.84865654 50.27363661 -14.3125 50.375 C-20.19489178 50.28194521 -24.17133675 49.31898572 -29 46 C-30.3303125 45.13375 -30.3303125 45.13375 -31.6875 44.25 C-37.94221793 38.1643285 -40.92279508 30.86975927 -41.4375 22.1875 C-41.25573404 14.71237475 -37.75398771 8.63884394 -32.875 3.125 C-23.3157776 -5.68447947 -11.00016214 -5.93659544 0 0 Z " fill="#FCFDFF" transform="translate(1786,1061)"/>
<path d="M0 0 C25.74 0 51.48 0 78 0 C79.98 3.96 81.96 7.92 84 12 C74.89824915 12.18126117 65.79771065 12.32780118 56.69455814 12.41449738 C52.46682869 12.45612297 48.24040547 12.5125115 44.01342773 12.60351562 C39.92842866 12.69090537 35.84467985 12.73836898 31.75881767 12.75901794 C30.20583869 12.7737182 28.65292267 12.80242616 27.10048103 12.84584045 C13.43594093 13.21252145 13.43594093 13.21252145 7.72436523 8.20117188 C6.44986745 6.83078507 5.20663352 5.43050347 4 4 C2.68 2.68 1.36 1.36 0 0 Z " fill="#1866FF" transform="translate(251,942)"/>
<path d="M0 0 C4.94742708 2.61373506 8.48243807 5.96487614 11 11 C11.5464078 17.33833047 10.64148894 21.71925558 7 27 C1.90797725 31.72830684 -1.44025353 32.35732055 -8.23828125 32.27734375 C-12.13419036 31.8860997 -14.14622175 30.64496521 -17 28 C-21.11416168 22.55151561 -22.92742299 17.8707675 -22 11 C-17.22340922 1.63053347 -10.19866264 -2.25278678 0 0 Z " fill="#EDF3FF" transform="translate(1905,1104)"/>
<path d="M0 0 C20.13 0 40.26 0 61 0 C61 4.29 61 8.58 61 13 C41.53 13 22.06 13 2 13 C1.67 10.03 1.34 7.06 1 4 C0.67 2.68 0.34 1.36 0 0 Z " fill="#206CFF" transform="translate(284,989)"/>
<path d="M0 0 C5.45061735 2.282569 9.49596862 5.57459868 12 11 C12.98556013 16.04982237 12.39826387 19.9235584 9.8125 24.375 C7.52444135 27.55673253 5.79138725 29.68125661 2 31 C-3.29785772 31.64093531 -7.56642178 31.67769152 -12.4375 29.375 C-16.88176997 25.25592051 -19.22384379 22.13066792 -19.5 16 C-19.2952398 11.29757599 -18.16435311 8.5919684 -15 5 C-10.14452129 0.72255447 -6.55263532 -1.01163493 0 0 Z " fill="#1B68FF" transform="translate(1700,1104)"/>
<path d="M0 0 C3.9771157 2.32609903 7.0980891 4.60253574 8.6796875 9.05078125 C9.34576974 14.07590804 9.28090183 17.84835259 6.9921875 22.42578125 C3.92066802 25.91237094 0.55017753 29.70058147 -4.2734375 30.2890625 C-9.84936133 30.46923691 -12.9371184 29.82236687 -17.3203125 26.05078125 C-21.5696266 21.34208184 -22.73892717 17.62641131 -22.66796875 11.40234375 C-21.93126559 6.41925048 -18.77691129 3.34091161 -15.1328125 0.11328125 C-10.10505787 -1.78609272 -5.03101792 -2.0581437 0 0 Z " fill="#1B68FF" transform="translate(1858.3203125,995.94921875)"/>
<path d="M0 0 C1.60424188 0.00933595 3.20849811 0.01644837 4.8127594 0.0214386 C9.01675396 0.04044724 13.2198724 0.08949345 17.42352295 0.1449585 C21.72037914 0.19628457 26.01737815 0.218981 30.31445312 0.24414062 C38.73217102 0.29761963 47.14917937 0.38285614 55.56640625 0.48828125 C53.34601037 8.00346729 53.34601037 8.00346729 50.56640625 10.48828125 C47.89733013 10.8703969 45.64135976 10.99508258 42.97387695 10.94238281 C42.2029068 10.94296692 41.43193665 10.94355103 40.63760376 10.94415283 C38.08867401 10.94136554 35.54091299 10.91024456 32.9921875 10.87890625 C31.22528218 10.87144612 29.45836858 10.86575211 27.69145203 10.86175537 C23.04040696 10.84648102 18.38986136 10.80718389 13.73901367 10.76293945 C8.99339556 10.72202546 4.24769676 10.70375265 -0.49804688 10.68359375 C-9.81011531 10.64069122 -19.121813 10.57241824 -28.43359375 10.48828125 C-18.7446994 0.79849703 -13.26089863 -0.22689451 0 0 Z " fill="#1967FF" transform="translate(278.43359375,1059.51171875)"/>
<path d="M0 0 C4.15866391 1.43953751 7.35152501 3.53914025 10.0859375 7.05859375 C12.01891587 11.16410764 11.61870267 15.60183099 11 20 C9.40290501 23.75317323 7.06353956 26.31940288 4 29 C-0.66483148 30.55494383 -5.13854023 30.71870953 -10 30 C-13.80840691 27.99131813 -16.18560382 25.3101156 -18.4375 21.6875 C-19.58050411 16.22648038 -19.87043481 11.77434789 -17.375 6.6875 C-12.14787655 0.77259715 -7.72886928 -1.12596837 0 0 Z " fill="#1967FF" transform="translate(165,920)"/>
<path d="M0 0 C20.79 0 41.58 0 63 0 C61 10 61 10 60 11 C57.94443339 11.09413687 55.88559819 11.11742998 53.82788086 11.11352539 C52.86205833 11.11374443 52.86205833 11.11374443 51.87672424 11.1139679 C49.73939697 11.11326885 47.60215587 11.10547691 45.46484375 11.09765625 C43.98653715 11.09579204 42.50822993 11.09436815 41.02992249 11.09336853 C37.13201198 11.08954359 33.23413851 11.07971352 29.33624268 11.06866455 C25.36153667 11.05844992 21.38682471 11.0538708 17.41210938 11.04882812 C9.608056 11.03809122 1.80403318 11.02101509 -6 11 C-4.17683329 7.20173603 -2.10818471 3.68932325 0 0 Z " fill="#1E6AFF" transform="translate(279,1037)"/>
<path d="M0 0 C19.8 0 39.6 0 60 0 C60 3.63 60 7.26 60 11 C39.87 11 19.74 11 -1 11 C-0.67 7.37 -0.34 3.74 0 0 Z " fill="#1C69FF" transform="translate(285,1014)"/>
<path d="M0 0 C21.45 0 42.9 0 65 0 C67 6 67 6 67 10 C46.54 10 26.08 10 5 10 C3.35 6.7 1.7 3.4 0 0 Z " fill="#1665FF" transform="translate(275,967)"/>
<path d="M0 0 C4.94742708 2.61373506 8.48243807 5.96487614 11 11 C11.5464078 17.33833047 10.64148894 21.71925558 7 27 C1.90797725 31.72830684 -1.44025353 32.35732055 -8.23828125 32.27734375 C-12.13419036 31.8860997 -14.14622175 30.64496521 -17 28 C-21.11416168 22.55151561 -22.92742299 17.8707675 -22 11 C-17.22340922 1.63053347 -10.19866264 -2.25278678 0 0 Z M-16 8 C-18.52013745 11.48018981 -18.36793894 14.80549604 -18 19 C-16.191879 23.09206332 -13.83654027 25.69807584 -10 28 C-5.50441766 28.73862509 -0.88313304 28.48089056 3 26 C6.43065473 21.2712597 7.8680994 17.9681834 7 12 C4.97333762 8.29609979 3.51955484 6.34636989 0 4 C-6.23944629 3.16936164 -11.64266593 2.93987011 -16 8 Z " fill="#2972FF" transform="translate(1905,1104)"/>
<path d="M0 0 C1.60875 -0.04125 3.2175 -0.0825 4.875 -0.125 C5.77992187 -0.14820313 6.68484375 -0.17140625 7.6171875 -0.1953125 C10 0 10 0 12 2 C12.125 4.625 12.125 4.625 12 7 C11.01 7.33 10.02 7.66 9 8 C10.65 10.64 12.3 13.28 14 16 C11.75 16.3125 11.75 16.3125 9 16 C6.6875 13.5 6.6875 13.5 5 11 C4.67 12.65 4.34 14.3 4 16 C2.68 16 1.36 16 0 16 C0 10.72 0 5.44 0 0 Z " fill="#3076FF" transform="translate(1894,1112)"/>
</svg>
