<?xml version="1.0" encoding="UTF-8"?>
<svg version="1.1" xmlns="http://www.w3.org/2000/svg" width="1050" height="1050" viewBox="0 0 1050 1050">
<rect width="1050" height="1050" fill="#FFFFFF"/>
<g transform="translate(0,225)">
<path d="M0 0 C4.38943408 0.01906914 8.77887801 0.02054055 13.16834712 0.02407622 C21.43720152 0.03330965 29.70593343 0.05780222 37.97473449 0.08812469 C47.40679814 0.12194393 56.83886842 0.13822306 66.27097785 0.153211 C85.63354356 0.18436226 104.99594189 0.23926178 124.35842586 0.30418181 C124.35842586 20.10418181 124.35842586 39.90418181 124.35842586 60.30418181 C120.05497127 60.32923797 115.75151668 60.35429412 111.31765437 60.38010955 C97.05250189 60.46382152 82.78738287 60.55243052 68.52227569 60.64352107 C59.87872324 60.69859669 51.23516669 60.75203386 42.59158015 60.80149627 C35.05026645 60.84465527 27.50897998 60.89100825 19.96770877 60.94106036 C15.98156357 60.96740885 11.99542287 60.99225059 8.00924563 61.01325583 C-19.54821577 60.40436104 -19.54821577 60.40436104 -46.70407414 63.99168181 C-47.44174016 64.16465789 -48.17940618 64.33763396 -48.93942571 64.51585174 C-82.5746361 72.78804275 -110.37906501 93.21993903 -128.39157414 122.67918181 C-136.33145263 136.18431403 -141.17874248 150.06219238 -144.64157414 165.30418181 C-144.92303288 166.41636077 -144.92303288 166.41636077 -145.21017766 167.55100799 C-147.01017581 175.26448469 -146.99579071 182.99059423 -146.95407414 190.86668181 C-146.95133992 191.93257537 -146.95133992 191.93257537 -146.94855046 193.02000213 C-146.80678086 225.81080435 -135.66958587 256.14218017 -114.64157414 281.30418181 C-114.09758977 282.00156463 -113.55360539 282.69894744 -112.99313664 283.41746306 C-108.64209307 288.88770571 -103.13774715 293.04003685 -97.64157414 297.30418181 C-96.77403508 297.98738494 -95.90649602 298.67058806 -95.01266789 299.37449431 C-78.53190543 311.90085625 -59.94752817 318.93198634 -39.64157414 322.30418181 C-38.75212102 322.48851775 -37.86266789 322.67285369 -36.94626164 322.86277556 C-8.48259193 326.66466053 23.46272607 321.13495297 46.60842586 303.49168181 C64.06338915 288.78530852 73.11104714 269.777969 75.35842586 247.30418181 C29.15842586 247.30418181 -17.04157414 247.30418181 -64.64157414 247.30418181 C-64.64157414 228.82418181 -64.64157414 210.34418181 -64.64157414 191.30418181 C-44.05648582 191.16838708 -23.47176394 191.05800987 -2.88634038 190.99330878 C6.67327686 190.96245944 16.23259466 190.92045104 25.79201961 190.8515451 C34.1305943 190.79146824 42.46895198 190.75296795 50.80773711 190.73965085 C55.21723074 190.73187457 59.62610388 190.7137886 64.03539729 190.66980147 C68.19864969 190.62861135 72.36103516 190.61660457 76.524472 190.62553573 C78.04005364 190.62390553 79.55566894 190.61224898 81.07107234 190.58894897 C96.2100806 190.36789866 109.60544595 194.39688647 121.35842586 204.30418181 C122.05194148 204.8752365 122.74545711 205.44629119 123.45998836 206.03465056 C134.32771334 215.87434751 140.18400067 230.03715422 141.22561336 244.48386931 C141.29135554 245.879924 141.29135554 245.879924 141.35842586 247.30418181 C141.42287898 248.44113494 141.48733211 249.57808806 141.55373836 250.74949431 C142.55437917 283.77064108 128.90213344 314.92798623 106.72170711 338.87058806 C76.42680664 370.06682441 30.43345133 383.74206387 -12.21188664 384.54246306 C-69.19000428 385.32752799 -120.77292579 368.73594325 -162.43942571 328.91111541 C-185.3201742 306.42649357 -201.63240524 277.99920058 -210.64157414 247.30418181 C-210.83590032 246.6598117 -211.03022649 246.01544158 -211.23044133 245.3515451 C-225.69632291 196.56390782 -217.95100702 142.8953463 -194.20407414 98.51414275 C-181.00834471 74.68355002 -161.99091063 52.91018402 -139.64157414 37.30418181 C-138.61548039 36.58359588 -137.58938664 35.86300994 -136.53219914 35.12058806 C-116.61769807 21.75690971 -95.15825238 12.15518697 -72.01657414 6.05418181 C-71.15491643 5.81973357 -70.29325871 5.58528533 -69.40549016 5.3437326 C-46.64148652 -0.30620185 -23.27688887 -0.11864176 0 0 Z " fill="#000000" transform="translate(563.6415741443634,106.69581818580627)"/>
<path d="M0 0 C6.57764868 5.19828041 10.50433095 11.45327523 14 19 C14.51240234 20.07701172 14.51240234 20.07701172 15.03515625 21.17578125 C18.72310798 30.28416436 18.2352596 41.56873583 14.97265625 50.734375 C9.53051915 63.41083893 1.38710102 72.62395281 -11.53125 78.06640625 C-24.86879084 82.66785784 -37.03299914 81.82363919 -49.80078125 75.64453125 C-60.45770501 69.61261538 -67.71366472 60.94506772 -71.875 49.375 C-75.16939571 36.94257808 -73.53269816 24.10688028 -67.375 12.9375 C-60.30715352 1.90265145 -51.53878154 -3.58448738 -39.5625 -8.375 C-25.38818478 -10.86172197 -11.9032506 -8.07000041 0 0 Z " fill="#000000" transform="translate(630,202)"/>
</g>
</svg>
