<?xml version="1.0" encoding="UTF-8"?>
<svg version="1.1" xmlns="http://www.w3.org/2000/svg" width="200" height="200">
<path d="M0 0 C66 0 132 0 200 0 C200 66 200 132 200 200 C134 200 68 200 0 200 C0 134 0 68 0 0 Z " fill="#FD6101" transform="translate(0,0)"/>
<path d="M0 0 C66 0 132 0 200 0 C200 66 200 132 200 200 C134 200 68 200 0 200 C0 134 0 68 0 0 Z M30 13 C28.38219829 18.17211462 27.46544336 23.14257796 26.8515625 28.51953125 C26.75434906 29.32646927 26.65713562 30.13340729 26.55697632 30.96479797 C26.34956409 32.68730508 26.14443214 34.41008806 25.94140625 36.13311768 C25.4047385 40.67771214 24.84821119 45.21984228 24.2890625 49.76171875 C24.12352875 51.10689575 24.12352875 51.10689575 23.95465088 52.47924805 C23.09629799 59.38241371 22.10538865 66.25685188 21 73.125 C19.2922679 83.74664196 17.87431432 94.39381346 16.5 105.0625 C14.83060809 118.01275557 12.97246487 130.90827948 10.84765625 143.79296875 C8.70321773 156.33223733 8.70321773 156.33223733 8 169 C9.24982666 169.15033691 9.24982666 169.15033691 10.52490234 169.30371094 C24.56601287 171.00181316 38.59523467 172.70018583 52.5625 174.9375 C63.53570611 176.69349226 74.53737463 178.1191041 85.5625 179.5 C98.54785352 181.12766422 111.46921121 182.9538195 124.3828125 185.0859375 C130.22429344 186.04760738 136.07543191 186.92354613 141.9375 187.75 C142.80769775 187.87777832 143.67789551 188.00555664 144.57446289 188.13720703 C150.41346945 188.94309535 156.10899169 189.14117714 162 189 C164.77791993 171.3624415 167.34785006 153.71741555 169.5625 136 C170.99838479 124.51611097 172.55467455 113.08527763 174.47631836 101.6706543 C176.38364251 90.09891388 177.79413786 78.45959797 179.25 66.82421875 C179.4003067 65.62398575 179.4003067 65.62398575 179.5536499 64.39950562 C179.75063096 62.82585657 179.94713164 61.25214731 180.14312744 59.67837524 C180.88971377 53.73444822 181.73865844 47.81114038 182.64599609 41.8894043 C182.97277564 39.22220712 183.06747475 36.68320475 183 34 C171.73817095 32.10629117 160.45368385 30.50362709 149.125 29.0625 C109.35782525 24.00165563 109.35782525 24.00165563 93.17260742 21.14428711 C84.78493926 19.71445075 76.32828943 18.76609211 67.88345337 17.74377441 C58.98342519 16.66460669 50.11785368 15.50714221 41.30078125 13.86328125 C37.48105568 13.16522052 33.88220349 12.88054758 30 13 Z " fill="#FEFDFD" transform="translate(0,0)"/>
<path d="M0 0 C2.9375 0.5625 2.9375 0.5625 4.6027832 2.27246094 C6.19853101 5.0103637 6.28541257 6.61551267 6.23046875 9.765625 C6.2159668 11.23515625 6.2159668 11.23515625 6.20117188 12.734375 C6.17603516 13.75015625 6.15089844 14.7659375 6.125 15.8125 C6.10469727 17.359375 6.10469727 17.359375 6.08398438 18.9375 C6.04867607 21.47969792 5.99936036 24.02083223 5.9375 26.5625 C8.5775 26.5625 11.2175 26.5625 13.9375 26.5625 C13.9375 18.3125 13.9375 10.0625 13.9375 1.5625 C15.89687126 5.48124251 16.10841179 6.27266073 15.8125 10.3125 C15.71955194 15.55631976 16.72119886 19.37125758 19.9375 23.5625 C24.77578656 27.24881357 30.0848232 27.25833942 35.9375 26.5625 C41.96581825 24.44142506 44.49713793 20.7230431 47.9375 15.5625 C47.9375 19.1925 47.9375 22.8225 47.9375 26.5625 C50.9075 26.5625 53.8775 26.5625 56.9375 26.5625 C56.87949219 25.17675781 56.82148437 23.79101562 56.76171875 22.36328125 C56.71481123 20.5338879 56.66931213 18.70445806 56.625 16.875 C56.58310547 15.96298828 56.54121094 15.05097656 56.49804688 14.11132812 C56.41383349 9.47959168 56.42655646 7.27043382 59.20703125 3.41796875 C61.9375 1.5625 61.9375 1.5625 65.9375 1.5625 C65.89109375 2.56410156 65.8446875 3.56570312 65.796875 4.59765625 C65.32952363 14.78198318 65.32952363 14.78198318 69.9375 23.5625 C74.12062861 26.14078053 78.15214456 26.15002585 82.9375 25.5625 C85.91734167 24.23079691 85.91734167 24.23079691 87.9375 22.5625 C87.85041331 24.02195288 87.74223093 25.48015868 87.625 26.9375 C87.56699219 27.74960938 87.50898437 28.56171875 87.44921875 29.3984375 C86.9375 31.5625 86.9375 31.5625 83.9375 33.5625 C80.375 33.8125 80.375 33.8125 76.9375 33.5625 C76.2775 32.9025 75.6175 32.2425 74.9375 31.5625 C72.73499008 31.10243654 72.73499008 31.10243654 70.3125 30.9375 C69.49523437 30.86273438 68.67796875 30.78796875 67.8359375 30.7109375 C67.20945312 30.66195312 66.58296875 30.61296875 65.9375 30.5625 C66.84705533 33.62191338 67.51978684 35.24275956 70.0859375 37.20703125 C73.55100493 38.85412495 76.04939178 38.96242253 79.875 38.9375 C81.65197266 38.94910156 81.65197266 38.94910156 83.46484375 38.9609375 C87.23809611 38.52801091 89.60509566 37.31444554 92.9375 35.5625 C94.2575 35.5625 95.5775 35.5625 96.9375 35.5625 C97.205625 34.94375 97.47375 34.325 97.75 33.6875 C98.9375 31.5625 98.9375 31.5625 101.9375 29.5625 C104.41796875 29.1484375 104.41796875 29.1484375 107.125 28.9375 C108.02605469 28.86273438 108.92710937 28.78796875 109.85546875 28.7109375 C110.54253906 28.66195312 111.22960937 28.61296875 111.9375 28.5625 C111.9375 27.9025 111.9375 27.2425 111.9375 26.5625 C109.9575 26.2325 107.9775 25.9025 105.9375 25.5625 C105.6075 26.2225 105.2775 26.8825 104.9375 27.5625 C102.9575 27.2325 100.9775 26.9025 98.9375 26.5625 C100.18726756 22.90933329 100.60848753 21.78184164 103.9375 19.5625 C110.08619026 18.95771079 112.9757545 19.56889996 117.9375 23.5625 C118.9375 24.5625 118.9375 24.5625 118.95922852 26.42016602 C118.91209717 27.21092529 118.86496582 28.00168457 118.81640625 28.81640625 C118.77330322 29.5854126 118.7302002 30.35441895 118.68579102 31.14672852 C118.59382446 32.6209729 118.59382446 32.6209729 118.5 34.125 C118.314375 37.239375 118.12875 40.35375 117.9375 43.5625 C118.9275 36.3025 119.9175 29.0425 120.9375 21.5625 C121.9275 21.2325 122.9175 20.9025 123.9375 20.5625 C123.2775 20.2325 122.6175 19.9025 121.9375 19.5625 C121.9375 17.5825 121.9375 15.6025 121.9375 13.5625 C124.2475 13.5625 126.5575 13.5625 128.9375 13.5625 C129.19395895 20.29454732 128.21912548 26.4638607 126.9375 33.0625 C126.74671875 34.07570312 126.5559375 35.08890625 126.359375 36.1328125 C125.89185389 38.61067439 125.41776672 41.08708268 124.9375 43.5625 C126.9175 43.5625 128.8975 43.5625 130.9375 43.5625 C131.28418567 52.48509437 130.1194112 61.07603774 128.91113281 69.89306641 C128.56435484 72.42396276 128.22663372 74.95593486 127.890625 77.48828125 C126.72430981 86.20775363 125.45163021 94.89548465 123.9375 103.5625 C116.47060472 103.80138705 109.39260179 103.08945034 102.01953125 101.953125 C100.33475174 101.70290588 100.33475174 101.70290588 98.61593628 101.44763184 C96.2260348 101.09212598 93.83659709 100.73349035 91.44760132 100.37194824 C85.23025856 99.43126233 79.00957395 98.51320847 72.7890625 97.59375 C71.57322983 97.41350281 70.35739716 97.23325562 69.10472107 97.04754639 C59.95680371 95.69695982 50.80120686 94.45316863 41.625 93.3125 C31.6857189 92.07443512 21.79697475 90.64358095 11.90551758 89.0703125 C-2.03629804 86.88760688 -16.053462 85.24759411 -30.0625 83.5625 C-29.43959725 74.86076749 -28.41527171 66.26057901 -27.1875 57.625 C-26.92296021 55.736604 -26.92296021 55.736604 -26.65307617 53.81005859 C-26.1266848 50.06032357 -25.59544128 46.31130914 -25.0625 42.5625 C-24.90958496 41.48371582 -24.75666992 40.40493164 -24.59912109 39.29345703 C-23.85894775 34.07536068 -23.11353629 28.85804657 -22.36181641 23.64160156 C-21.92617942 20.61559457 -21.49428898 17.58905824 -21.0625 14.5625 C-19.0625 14.5625 -17.0625 14.5625 -15.0625 14.5625 C-15.0625 18.5225 -15.0625 22.4825 -15.0625 26.5625 C-12.4225 26.5625 -9.7825 26.5625 -7.0625 26.5625 C-7.08344727 25.95253174 -7.10439453 25.34256348 -7.12597656 24.71411133 C-7.20942861 21.93457706 -7.26125011 19.1553068 -7.3125 16.375 C-7.34601562 15.41529297 -7.37953125 14.45558594 -7.4140625 13.46679688 C-7.47555668 9.0238422 -7.50698434 6.32773643 -5.23828125 2.421875 C-3.0625 0.5625 -3.0625 0.5625 0 0 Z " fill="#FD6101" transform="translate(38.0625,85.4375)"/>
<path d="M0 0 C4.06355539 1.29232119 6.45658422 3.22870019 8.9375 6.75 C9.288125 7.4925 9.63875 8.235 10 9 C10.33 6.03 10.66 3.06 11 0 C13.97 0 16.94 0 20 0 C20.495 1.98 20.495 1.98 21 4 C21.556875 3.34 22.11375 2.68 22.6875 2 C25 0 25 0 27.75 -0.25 C28.4925 -0.1675 29.235 -0.085 30 0 C30.495 2.475 30.495 2.475 31 5 C31.78375 4.175 32.5675 3.35 33.375 2.5 C36.98475911 -0.53254226 40.1527276 -0.52500488 44.73046875 -0.46875 C47.38404974 0.07932181 48.31118565 0.931615 50 3 C50.33 2.34 50.66 1.68 51 1 C53.64 1 56.28 1 59 1 C59.09920549 6.15944873 59.17162646 11.31833689 59.21972656 16.47851562 C59.2397871 18.23219479 59.26704251 19.98580753 59.30175781 21.73925781 C59.35052302 24.26644318 59.37302392 26.79274091 59.390625 29.3203125 C59.41127014 30.09867462 59.43191528 30.87703674 59.45318604 31.6789856 C59.45532036 36.90886161 58.46154991 39.85012577 55 44 C49.34674647 47.29852567 42.31485329 46.59894979 36 46 C33.06049867 45.03920893 32.18683707 44.31179919 30 42 C29.125 39.25 29.125 39.25 29 37 C30.45792884 36.94600264 31.91642712 36.90720823 33.375 36.875 C34.18710938 36.85179687 34.99921875 36.82859375 35.8359375 36.8046875 C38 37 38 37 40 39 C44.65194714 39.34216235 44.65194714 39.34216235 49 38 C49.46523063 36.10466658 49.46523063 36.10466658 49.625 33.9375 C49.810625 31.9884375 49.810625 31.9884375 50 30 C49.525625 30.495 49.05125 30.99 48.5625 31.5 C44.75830343 33.72684677 41.30674357 33.54799067 37 33 C33.00915925 31.49234905 30.73731061 29.0933949 28.71875 25.30859375 C27.15270768 20.2785339 26.59996816 12.80006368 29 8 C24.18877153 9.52555966 24.18877153 9.52555966 21 13 C20.84876169 14.5195764 20.75118307 16.04472502 20.68359375 17.5703125 C20.62075195 18.91416016 20.62075195 18.91416016 20.55664062 20.28515625 C20.51732422 21.22230469 20.47800781 22.15945312 20.4375 23.125 C20.37272461 24.54232422 20.37272461 24.54232422 20.30664062 25.98828125 C20.2004106 28.32534172 20.09968729 30.6626513 20 33 C17.03 33 14.06 33 11 33 C10.505 29.04 10.505 29.04 10 25 C9.62488281 25.48210937 9.24976562 25.96421875 8.86328125 26.4609375 C3.50102852 33.07933508 3.50102852 33.07933508 -1 34 C-6.97203187 34.54199953 -11.94964146 34.60739896 -17 31 C-21.7629392 24.82105185 -22.81410173 19.6322037 -22 12 C-18.47651108 0.75930437 -11.04841051 -1.34703527 0 0 Z " fill="#312D2A" transform="translate(75,79)"/>
<path d="M0 0 C4.06355539 1.29232119 6.45658422 3.22870019 8.9375 6.75 C9.288125 7.4925 9.63875 8.235 10 9 C10.33 6.03 10.66 3.06 11 0 C13.97 0 16.94 0 20 0 C20.495 2.97 20.495 2.97 21 6 C20.34 6 19.68 6 19 6 C19 4.35 19 2.7 19 1 C16.69 1 14.38 1 12 1 C12 11.56 12 22.12 12 33 C11.67 33 11.34 33 11 33 C10.505 29.04 10.505 29.04 10 25 C9.62488281 25.48210937 9.24976562 25.96421875 8.86328125 26.4609375 C3.50102852 33.07933508 3.50102852 33.07933508 -1 34 C-6.97203187 34.54199953 -11.94964146 34.60739896 -17 31 C-21.7629392 24.82105185 -22.81410173 19.6322037 -22 12 C-18.47651108 0.75930437 -11.04841051 -1.34703527 0 0 Z " fill="#302D2A" transform="translate(75,79)"/>
<path d="M0 0 C2.31 0 4.62 0 7 0 C7.41049208 6.70470396 6.12442536 12.72705929 4.734375 19.27734375 C3.83454267 23.83872785 3.31624436 28.36538431 3 33 C1.0412957 32.85923685 -0.91696093 32.7122324 -2.875 32.5625 C-3.96554688 32.48128906 -5.05609375 32.40007812 -6.1796875 32.31640625 C-9 32 -9 32 -11 31 C-11 30.34 -11 29.68 -11 29 C-11.53625 29.33 -12.0725 29.66 -12.625 30 C-15.67193922 31.28292178 -17.72032701 31.40995912 -21 31 C-23.375 29 -23.375 29 -25 27 C-25.33 27.33 -25.66 27.66 -26 28 C-28.33297433 28.04092937 -30.66705225 28.04241723 -33 28 C-32.6875 26.125 -32.6875 26.125 -32 24 C-29 22 -29 22 -25 22 C-24.731875 21.38125 -24.46375 20.7625 -24.1875 20.125 C-23 18 -23 18 -20 16 C-17.51953125 15.5859375 -17.51953125 15.5859375 -14.8125 15.375 C-13.91144531 15.30023438 -13.01039063 15.22546875 -12.08203125 15.1484375 C-11.39496094 15.09945312 -10.70789063 15.05046875 -10 15 C-10 14.34 -10 13.68 -10 13 C-12.97 12.505 -12.97 12.505 -16 12 C-16.33 12.66 -16.66 13.32 -17 14 C-19.97 13.505 -19.97 13.505 -23 13 C-21.75023244 9.34683329 -21.32901247 8.21934164 -18 6 C-11.85130974 5.39521079 -8.9617455 6.00639996 -4 10 C-3 11 -3 11 -2.97827148 12.85766602 C-3.04896851 14.04380493 -3.04896851 14.04380493 -3.12109375 15.25390625 C-3.18574829 16.40741577 -3.18574829 16.40741577 -3.25170898 17.58422852 C-3.31302002 18.56705811 -3.37433105 19.5498877 -3.4375 20.5625 C-3.623125 23.676875 -3.80875 26.79125 -4 30 C-3.01 22.74 -2.02 15.48 -1 8 C-0.01 7.67 0.98 7.34 2 7 C1.34 6.67 0.68 6.34 0 6 C0 4.02 0 2.04 0 0 Z " fill="#FBF7F2" transform="translate(160,99)"/>
<path d="M0 0 C2.97567532 0.4463513 4.86775614 1.43015275 7.1875 3.328125 C9.54758817 6.86825725 9.42213644 8.33934455 9.3828125 12.52734375 C9.37636719 13.73583984 9.36992188 14.94433594 9.36328125 16.18945312 C9.34652344 17.45208984 9.32976563 18.71472656 9.3125 20.015625 C9.30347656 21.28986328 9.29445313 22.56410156 9.28515625 23.87695312 C9.26155641 27.02753127 9.22863194 30.17773483 9.1875 33.328125 C6.5475 33.328125 3.9075 33.328125 1.1875 33.328125 C1.16768066 32.67739014 1.14786133 32.02665527 1.12744141 31.35620117 C1.03220701 28.40893349 0.92252182 25.46237615 0.8125 22.515625 C0.7815625 21.49146484 0.750625 20.46730469 0.71875 19.41210938 C0.68007813 18.42919922 0.64140625 17.44628906 0.6015625 16.43359375 C0.55443115 15.07463989 0.55443115 15.07463989 0.50634766 13.68823242 C0.32722081 11.06287108 0.32722081 11.06287108 -1.8125 8.328125 C-4.76996492 7.74467024 -4.76996492 7.74467024 -7.8125 8.328125 C-10.60178345 11.21220387 -11.20370352 13.3596006 -11.32421875 17.3125 C-11.35966797 18.24707031 -11.39511719 19.18164062 -11.43164062 20.14453125 C-11.46547852 21.59666016 -11.46547852 21.59666016 -11.5 23.078125 C-11.53416016 24.06167969 -11.56832031 25.04523438 -11.60351562 26.05859375 C-11.68585273 28.48165699 -11.75504838 30.90436498 -11.8125 33.328125 C-14.4525 33.328125 -17.0925 33.328125 -19.8125 33.328125 C-19.8125 22.768125 -19.8125 12.208125 -19.8125 1.328125 C-17.1725 1.328125 -14.5325 1.328125 -11.8125 1.328125 C-11.4825 2.318125 -11.1525 3.308125 -10.8125 4.328125 C-10.1009375 3.338125 -10.1009375 3.338125 -9.375 2.328125 C-6.09615936 -0.23097014 -4.05739835 -0.18685387 0 0 Z " fill="#2C2C2B" transform="translate(42.8125,78.671875)"/>
<path d="M0 0 C2.64 0 5.28 0 8 0 C8.09920549 5.15944873 8.17162646 10.31833689 8.21972656 15.47851562 C8.2397871 17.23219479 8.26704251 18.98580753 8.30175781 20.73925781 C8.35052302 23.26644318 8.37302392 25.79274091 8.390625 28.3203125 C8.41127014 29.09867462 8.43191528 29.87703674 8.45318604 30.6789856 C8.45532036 35.90886161 7.46154991 38.85012577 4 43 C-1.65325353 46.29852567 -8.68514671 45.59894979 -15 45 C-17.93950133 44.03920893 -18.81316293 43.31179919 -21 41 C-21.875 38.25 -21.875 38.25 -22 36 C-20.54207116 35.94600264 -19.08357288 35.90720823 -17.625 35.875 C-16.81289062 35.85179687 -16.00078125 35.82859375 -15.1640625 35.8046875 C-13 36 -13 36 -11 38 C-6.34805286 38.34216235 -6.34805286 38.34216235 -2 37 C-1.08968728 34.65613191 -1.08968728 34.65613191 -0.375 31.9375 C-0.11460938 31.01839844 0.14578125 30.09929687 0.4140625 29.15234375 C0.60742188 28.44207031 0.80078125 27.73179688 1 27 C0.34 27 -0.32 27 -1 27 C-0.15060241 17.69277108 -0.15060241 17.69277108 0.625 14.125 C1.04496863 11.74517777 0.61462725 10.30485219 0 8 C0.33 7.01 0.66 6.02 1 5 C0.60602665 2.36195411 0.60602665 2.36195411 0 0 Z " fill="#2B2C2C" transform="translate(126,80)"/>
<path d="M0 0 C2.31 0 4.62 0 7 0 C7.41049208 6.70470396 6.12442536 12.72705929 4.734375 19.27734375 C3.83454267 23.83872785 3.31624436 28.36538431 3 33 C1.0412957 32.85923685 -0.91696093 32.7122324 -2.875 32.5625 C-3.96554688 32.48128906 -5.05609375 32.40007812 -6.1796875 32.31640625 C-9 32 -9 32 -11 31 C-11 30.34 -11 29.68 -11 29 C-11.53625 29.33 -12.0725 29.66 -12.625 30 C-15.5391061 31.22699204 -17.86867708 31.14233286 -21 31 C-20.34 30.67 -19.68 30.34 -19 30 C-19.04125 28.72125 -19.0825 27.4425 -19.125 26.125 C-19.1953125 23.9453125 -19.1953125 23.9453125 -19 22 C-17 20 -17 20 -13.375 19.875 C-11.704375 19.936875 -11.704375 19.936875 -10 20 C-10 21.98 -10 23.96 -10 26 C-9.67 25.67 -9.34 25.34 -9 25 C-8.34 24.67 -7.68 24.34 -7 24 C-6.34 24.33 -5.68 24.66 -5 25 C-4.67 26.65 -4.34 28.3 -4 30 C-3.01 22.74 -2.02 15.48 -1 8 C-0.01 7.67 0.98 7.34 2 7 C1.34 6.67 0.68 6.34 0 6 C0 4.02 0 2.04 0 0 Z " fill="#FCF5EE" transform="translate(160,99)"/>
<path d="M0 0 C0.66 0.33 1.32 0.66 2 1 C2.29483044 2.99829519 2.57948742 5.00002782 2.76171875 7.01171875 C2.91849984 9.07168233 2.91849984 9.07168233 3.875 11.125 C4 13 4 13 1.875 16.125 C-1.23243211 19.47797851 -3.70975083 20.7886515 -8.328125 21.21484375 C-13.6100212 21.41251951 -17.56764162 21.16597027 -22 18 C-24.75254325 14.74040931 -25.93323132 12.90137718 -26.25 8.625 C-26.12625 7.325625 -26.12625 7.325625 -26 6 C-25.34 6 -24.68 6 -24 6 C-23.67 5.01 -23.34 4.02 -23 3 C-22.34 3 -21.68 3 -21 3 C-20.67 2.34 -20.34 1.68 -20 1 C-19.3291288 2.6232687 -18.66342971 4.24867578 -18 5.875 C-17.443125 7.23238281 -17.443125 7.23238281 -16.875 8.6171875 C-16 11 -16 11 -16 13 C-12.94947584 13.2877853 -10.04152707 13.42678621 -7 13 C-3.96618707 9.77657376 -3.50189566 6.31630266 -3 2 C-2.34 2 -1.68 2 -1 2 C-0.67 1.34 -0.34 0.68 0 0 Z " fill="#2C2C2B" transform="translate(80,92)"/>
<path d="M0 0 C2.31 0 4.62 0 7 0 C7 1.65 7 3.3 7 5 C7.66 5 8.32 5 9 5 C9.33 4.01 9.66 3.02 10 2 C10.66 2.33 11.32 2.66 12 3 C11.2733313 3.80872559 11.2733313 3.80872559 10.53198242 4.63378906 C8.63893317 7.55768283 8.57664538 9.39550128 8.48828125 12.859375 C8.45283203 13.97441406 8.41738281 15.08945313 8.38085938 16.23828125 C8.34702148 17.97658203 8.34702148 17.97658203 8.3125 19.75 C8.27833984 20.92433594 8.24417969 22.09867188 8.20898438 23.30859375 C8.12654827 26.20563389 8.05738189 29.10237298 8 32 C5.36 32 2.72 32 0 32 C0 21.44 0 10.88 0 0 Z " fill="#2A2B2C" transform="translate(87,80)"/>
<path d="M0 0 C2.70043447 2.1464992 3.79798635 3.73052786 4.34375 7.16015625 C4.53482042 11.92895542 4.02194856 15.13190584 1 19 C0 20 0 20 -3.375 20.25 C-7 20 -7 20 -8.875 18.625 C-11.96036079 14.16836775 -11.54236356 9.24543048 -11 4 C-8.31377155 -0.62031294 -5.08454293 -0.81715868 0 0 Z " fill="#F75F02" transform="translate(73,86)"/>
<path d="M0 0 C2.63231951 2.14741855 3.78562464 3.7903105 4.3828125 7.16015625 C4.58168486 11.13097439 4.26039029 13.50926446 2.375 17.0625 C0 19 0 19 -3 19.5625 C-6 19 -6 19 -8.375 17.6875 C-10.99879814 13.34814154 -10.73312699 8.92990498 -10 4 C-7.45249327 -0.2131842 -4.77756484 -0.89579341 0 0 Z " fill="#F65F04" transform="translate(122,86)"/>
<path d="M0 0 C0.78375 0.639375 1.5675 1.27875 2.375 1.9375 C6.85358986 5.45639203 10.42469575 5.57675561 16 5 C18.97984167 3.66829691 18.97984167 3.66829691 21 2 C20.91291331 3.45945288 20.80473093 4.91765868 20.6875 6.375 C20.62949219 7.18710938 20.57148437 7.99921875 20.51171875 8.8359375 C20 11 20 11 17 13 C13.4375 13.25 13.4375 13.25 10 13 C9.34 12.34 8.68 11.68 8 11 C5.79749008 10.53993654 5.79749008 10.53993654 3.375 10.375 C2.55773437 10.30023438 1.74046875 10.22546875 0.8984375 10.1484375 C0.27195312 10.09945312 -0.35453125 10.05046875 -1 10 C-0.34 9.67 0.32 9.34 1 9 C0.67 8.01 0.34 7.02 0 6 C0.66 6 1.32 6 2 6 C2 6.66 2 7.32 2 8 C2.66 7.67 3.32 7.34 4 7 C2.68 6.34 1.36 5.68 0 5 C0 3.35 0 1.7 0 0 Z " fill="#E95C06" transform="translate(105,106)"/>
<path d="M0 0 C2.97 0 5.94 0 9 0 C9.33 1.98 9.66 3.96 10 6 C9.34 6 8.68 6 8 6 C8 4.35 8 2.7 8 1 C5.69 1 3.38 1 1 1 C1 11.56 1 22.12 1 33 C0.67 33 0.34 33 0 33 C-0.103125 31.741875 -0.20625 30.48375 -0.3125 29.1875 C-0.61213192 25.975964 -0.61213192 25.975964 -2.5 23.5 C-5.0766112 20.9233888 -4.71072499 17.52915509 -5 14 C-5.99 14.66 -6.98 15.32 -8 16 C-8.99 13.69 -9.98 11.38 -11 9 C-9.68 9.33 -8.36 9.66 -7 10 C-7 9.34 -7 8.68 -7 8 C-4.03 8.495 -4.03 8.495 -1 9 C-0.67 6.03 -0.34 3.06 0 0 Z " fill="#573622" transform="translate(86,79)"/>
<path d="M0 0 C1.670625 0.061875 1.670625 0.061875 3.375 0.125 C3.375 2.105 3.375 4.085 3.375 6.125 C3.705 5.795 4.035 5.465 4.375 5.125 C5.035 4.795 5.695 4.465 6.375 4.125 C7.035 4.455 7.695 4.785 8.375 5.125 C8.75718767 6.78114657 9.08895102 8.44957024 9.375 10.125 C9.705 10.785 10.035 11.445 10.375 12.125 C4.625 12.25 4.625 12.25 2.375 11.125 C2.375 10.465 2.375 9.805 2.375 9.125 C1.83875 9.455 1.3025 9.785 0.75 10.125 C-2.1641061 11.35199204 -4.49367708 11.26733286 -7.625 11.125 C-6.965 10.795 -6.305 10.465 -5.625 10.125 C-5.66625 8.84625 -5.7075 7.5675 -5.75 6.25 C-5.8203125 4.0703125 -5.8203125 4.0703125 -5.625 2.125 C-3.625 0.125 -3.625 0.125 0 0 Z " fill="#FCF0E7" transform="translate(146.625,118.875)"/>
<path d="M0 0 C0.33 1.32 0.66 2.64 1 4 C1.99 3.67 2.98 3.34 4 3 C5.81115956 4.81115956 5.38199448 7.61278227 5.5625 10.0625 C5.64628906 11.16722656 5.73007813 12.27195313 5.81640625 13.41015625 C5.87699219 14.26480469 5.93757812 15.11945313 6 16 C5.01 15.67 4.02 15.34 3 15 C3 14.34 3 13.68 3 13 C1.68 13 0.36 13 -1 13 C-0.67 8.71 -0.34 4.42 0 0 Z " fill="#FD6911" transform="translate(164,116)"/>
<path d="M0 0 C2.31 0 4.62 0 7 0 C7.07654536 4.51617599 7.10228696 8.59085217 6 13 C5.67 11.68 5.34 10.36 5 9 C3.02 9 1.04 9 -1 9 C-0.01 8.34 0.98 7.68 2 7 C1.34 6.67 0.68 6.34 0 6 C0 4.02 0 2.04 0 0 Z " fill="#FA9252" transform="translate(160,99)"/>
<path d="M0 0 C0.66 0 1.32 0 2 0 C2 0.66 2 1.32 2 2 C2.66 2 3.32 2 4 2 C3.85775413 4.52108103 3.71129879 7.04180403 3.5625 9.5625 C3.52318359 10.26697266 3.48386719 10.97144531 3.44335938 11.69726562 C3.17546296 16.1690751 2.85601216 20.59522219 2 25 C1.34 25.33 0.68 25.66 0 26 C0.03552979 25.41508789 0.07105957 24.83017578 0.10766602 24.22753906 C0.2656043 21.56869151 0.41414511 18.90939877 0.5625 16.25 C0.61857422 15.32960938 0.67464844 14.40921875 0.73242188 13.4609375 C0.78076172 12.57148437 0.82910156 11.68203125 0.87890625 10.765625 C0.94960327 9.54020996 0.94960327 9.54020996 1.02172852 8.29003906 C1.00012527 6.01320269 0.60652954 4.18338966 0 2 C0 1.34 0 0.68 0 0 Z " fill="#FC6E1D" transform="translate(155,104)"/>
<path d="M0 0 C1.134375 0.020625 2.26875 0.04125 3.4375 0.0625 C2.7775 2.0425 2.1175 4.0225 1.4375 6.0625 C-3.3125 7.1875 -3.3125 7.1875 -5.5625 6.0625 C-4.48849278 0.07874549 -4.48849278 0.07874549 0 0 Z " fill="#FB6B1A" transform="translate(146.5625,118.9375)"/>
<path d="M0 0 C0.33 0 0.66 0 1 0 C1.33 2.64 1.66 5.28 2 8 C2.66 8 3.32 8 4 8 C4.125 10.875 4.125 10.875 4 14 C3.34 14.66 2.68 15.32 2 16 C0.48046875 14.91796875 0.48046875 14.91796875 -1 13 C-1.07421875 9.86328125 -1.07421875 9.86328125 -0.6875 6.3125 C-0.56761719 5.13300781 -0.44773437 3.95351562 -0.32421875 2.73828125 C-0.16373047 1.38283203 -0.16373047 1.38283203 0 0 Z " fill="#FB6912" transform="translate(19,86)"/>
<path d="M0 0 C2.44386713 3.66580069 2.09940952 5.00978247 1.6875 9.3125 C1.58824219 10.42238281 1.48898438 11.53226563 1.38671875 12.67578125 C1.02241793 15.80729639 0.5493992 18.89612931 0 22 C-2.45959597 18.31060605 -2.07055051 16.95179047 -1.625 12.625 C-1.15373497 7.894786 -1.15373497 7.894786 -1.0234375 3.1484375 C-1 1 -1 1 0 0 Z " fill="#FC6715" transform="translate(165,146)"/>
<path d="M0 0 C1 3 1 3 -0.4375 6.1875 C-1.2109375 7.5796875 -1.2109375 7.5796875 -2 9 C-4.31 9 -6.62 9 -9 9 C-8.6875 7.125 -8.6875 7.125 -8 5 C-5 3 -5 3 -1 3 C-0.67 2.01 -0.34 1.02 0 0 Z " fill="#FBEFE4" transform="translate(136,118)"/>
<path d="M0 0 C2.04371546 1.677033 2.92353251 2.53872837 3.36328125 5.19140625 C3.34652344 5.97386719 3.32976562 6.75632812 3.3125 7.5625 C3.30863281 8.34753906 3.30476563 9.13257812 3.30078125 9.94140625 C3 12 3 12 1 14 C0.67 13.34 0.34 12.68 0 12 C0.33 11.34 0.66 10.68 1 10 C0.01 10.33 -0.98 10.66 -2 11 C-1.34 9.35 -0.68 7.7 0 6 C-0.66 5.67 -1.32 5.34 -2 5 C-1 2 -1 2 0 0 Z " fill="#E75B07" transform="translate(123,88)"/>
<path d="M0 0 C0.33 0 0.66 0 1 0 C1 3.63 1 7.26 1 11 C-1.31 10.67 -3.62 10.34 -6 10 C-5.65066406 9.52949219 -5.30132812 9.05898437 -4.94140625 8.57421875 C-4.48636719 7.95160156 -4.03132813 7.32898438 -3.5625 6.6875 C-2.88380859 5.76517578 -2.88380859 5.76517578 -2.19140625 4.82421875 C-0.82663692 2.90322899 -0.82663692 2.90322899 0 0 Z " fill="#EB5C06" transform="translate(85,101)"/>
<path d="M0 0 C2.00720923 0.28674418 4.0085944 0.61866701 6 1 C6 2.32 6 3.64 6 5 C4.02 5 2.04 5 0 5 C-0.5625 3.0625 -0.5625 3.0625 -1 1 C-0.67 0.67 -0.34 0.34 0 0 Z " fill="#FC6B19" transform="translate(144,110)"/>
<path d="M0 0 C2 3 2 3 2 7 C1.01 7.33 0.02 7.66 -1 8 C-1.33 8.66 -1.66 9.32 -2 10 C-2.66 9.34 -3.32 8.68 -4 8 C-3.625 5.875 -3.625 5.875 -3 4 C-2.67 4.33 -2.34 4.66 -2 5 C-1.34 3.35 -0.68 1.7 0 0 Z M-6 9 C-3 10 -3 10 -3 10 Z " fill="#FAF8F4" transform="translate(153,117)"/>
<path d="M0 0 C1.65 0 3.3 0 5 0 C5 1.65 5 3.3 5 5 C3.02 5 1.04 5 -1 5 C-0.67 3.35 -0.34 1.7 0 0 Z " fill="#FBFAF7" transform="translate(161,100)"/>
<path d="M0 0 C0 0.33 0 0.66 0 1 C-1.670625 1.4021875 -1.670625 1.4021875 -3.375 1.8125 C-7.21840951 2.65809019 -7.21840951 2.65809019 -9 6 C-10.32 5.67 -11.64 5.34 -13 5 C-8.7797731 -0.27528362 -6.38501231 -0.54110274 0 0 Z " fill="#FAE1CD" transform="translate(150,105)"/>
<path d="M0 0 C-0.66 1.65 -1.32 3.3 -2 5 C-5 5 -5 5 -8 3 C-4.93882432 0.37613513 -4.26826873 0 0 0 Z " fill="#E75C07" transform="translate(104,87)"/>
<path d="M0 0 C0 1.98 0 3.96 0 6 C-1.98 6 -3.96 6 -6 6 C-3.84615385 0 -3.84615385 0 0 0 Z " fill="#FC6105" transform="translate(121,112)"/>
<path d="M0 0 C-3.61328125 4.6875 -3.61328125 4.6875 -5 6 C-5.99 6 -6.98 6 -8 6 C-7.39816251 3.97954558 -6.72693904 1.97888961 -6 0 C-3.50907189 -1.24546405 -2.58919267 -0.7767578 0 0 Z " fill="#F76511" transform="translate(140,115)"/>
<path d="M0 0 C1.32 0.33 2.64 0.66 4 1 C3.34 1 2.68 1 2 1 C1.34 2.65 0.68 4.3 0 6 C-0.66 5.67 -1.32 5.34 -2 5 C-3.53668865 4.77532169 -5.07968054 4.59203195 -6.625 4.4375 C-7.44226563 4.35371094 -8.25953125 4.26992187 -9.1015625 4.18359375 C-9.72804688 4.12300781 -10.35453125 4.06242187 -11 4 C-11 3.67 -11 3.34 -11 3 C-5.555 2.505 -5.555 2.505 0 2 C0 1.34 0 0.68 0 0 Z " fill="#D35608" transform="translate(115,112)"/>
<path d="M0 0 C1.2065625 0.0309375 1.2065625 0.0309375 2.4375 0.0625 C3.5 1.9375 3.5 1.9375 4.4375 4.0625 C4.1075 4.7225 3.7775 5.3825 3.4375 6.0625 C-0.21566671 4.81273244 -1.34315836 4.39151247 -3.5625 1.0625 C-2.5625 0.0625 -2.5625 0.0625 0 0 Z " fill="#3A2F28" transform="translate(59.5625,105.9375)"/>
<path d="M0 0 C1.65 0 3.3 0 5 0 C4.67 1.65 4.34 3.3 4 5 C2.68 5 1.36 5 0 5 C0 3.35 0 1.7 0 0 Z " fill="#FCF3EA" transform="translate(26,11)"/>
<path d="M0 0 C1.125 3.75 1.125 3.75 0 6 C-1.32 6 -2.64 6 -4 6 C-4.33 4.68 -4.66 3.36 -5 2 C-4.01 1.67 -3.02 1.34 -2 1 C-1.67 1.33 -1.34 1.66 -1 2 C-0.67 1.34 -0.34 0.68 0 0 Z " fill="#23292C" transform="translate(104,81)"/>
<path d="M0 0 C0.33 0.66 0.66 1.32 1 2 C0.67 2.66 0.34 3.32 0 4 C0.99 4 1.98 4 3 4 C2.34 5.32 1.68 6.64 1 8 C-1.22189824 5.77810176 -1.92598892 3.91517292 -3 1 C-2.01 0.67 -1.02 0.34 0 0 Z " fill="#353333" transform="translate(129,115)"/>
<path d="M0 0 C-0.53069061 3.82097239 -1.49701566 6.06171403 -4 9 C-4.6875 6.1875 -4.6875 6.1875 -5 3 C-3.41464922 0.73521317 -2.79754986 0 0 0 Z " fill="#F05D06" transform="translate(37,86)"/>
<path d="M0 0 C0.33 1.32 0.66 2.64 1 4 C-0.32 4.99 -1.64 5.98 -3 7 C-3 5.02 -3 3.04 -3 1 C-2.01 0.67 -1.02 0.34 0 0 Z " fill="#D4560A" transform="translate(108,78)"/>
<path d="M0 0 C2.4294516 3.6441774 2.16179575 5.71241272 2 10 C1.67 8.68 1.34 7.36 1 6 C0.34 6 -0.32 6 -1 6 C-1.042721 4.33388095 -1.04063832 2.66617115 -1 1 C-0.67 0.67 -0.34 0.34 0 0 Z " fill="#FD701D" transform="translate(165,146)"/>
<path d="M0 0 C0 0.99 0 1.98 0 3 C-4.29 2.67 -8.58 2.34 -13 2 C-13 1.67 -13 1.34 -13 1 C-11.20843648 0.83222817 -9.4167455 0.66581706 -7.625 0.5 C-6.62726563 0.4071875 -5.62953125 0.314375 -4.6015625 0.21875 C-2 0 -2 0 0 0 Z " fill="#DD5809" transform="translate(127,124)"/>
<path d="M0 0 C2.43929746 1.92576115 4.80090595 3.80090595 7 6 C6.01 6.495 6.01 6.495 5 7 C2.375 6.0625 2.375 6.0625 0 5 C0 3.35 0 1.7 0 0 Z " fill="#E85C05" transform="translate(105,106)"/>
</svg>
