<?xml version="1.0" encoding="UTF-8"?>
<svg version="1.1" xmlns="http://www.w3.org/2000/svg" width="224" height="224">
<path d="M0 0 C73.92 0 147.84 0 224 0 C224 73.92 224 147.84 224 224 C150.08 224 76.16 224 0 224 C0 150.08 0 76.16 0 0 Z " fill="#FDFEFF" transform="translate(0,0)"/>
<path d="M0 0 C4.75 0.75 4.75 0.75 7 3 C7.046875 5.07421875 7.046875 5.07421875 6.75 7.6875 C6.64300781 8.656875 6.53601563 9.62625 6.42578125 10.625 C5.65241683 16.7551547 4.85068842 22.87999881 4 29 C7.56808561 27.87038509 7.56808561 27.87038509 10.2578125 25.40625 C14.03637502 17.10022069 16.26583642 9.10362838 17 0 C21.75 0.875 21.75 0.875 24 2 C24.43169792 12.84041453 24.96703037 27.06593926 20 37 C21.44608643 36.75660889 21.44608643 36.75660889 22.92138672 36.50830078 C27.37200744 35.87580525 31.76919605 35.85614924 36.2578125 35.8671875 C37.1238913 35.86623077 37.98997009 35.86527405 38.8822937 35.86428833 C40.70261712 35.86361126 42.52294301 35.86543239 44.34326172 35.86962891 C47.12342755 35.87499696 49.9034328 35.86966114 52.68359375 35.86328125 C54.45833369 35.86394186 56.23307353 35.86522267 58.0078125 35.8671875 C58.83499786 35.86516327 59.66218323 35.86313904 60.51443481 35.86105347 C61.2922934 35.86420563 62.07015198 35.86735779 62.87158203 35.87060547 C63.88915085 35.87179886 63.88915085 35.87179886 64.92727661 35.87301636 C67 36 67 36 72 37 C74.97 18.685 74.97 18.685 78 0 C84 2 84 2 85.375 4.625 C85.684375 5.800625 85.684375 5.800625 86 7 C86.45375 6.195625 86.9075 5.39125 87.375 4.5625 C89 2 89 2 91 1 C94.375 0.625 94.375 0.625 98 1 C101.30837153 4.30837153 102.88989634 6.78885972 103.3125 11.4375 C103.21272207 17.51286754 101.46479441 24.07184998 97.50390625 28.77734375 C92.83667825 32.79278929 88.98474495 33.21374089 83 33 C81.515 32.505 81.515 32.505 80 32 C79.34 40.58 78.68 49.16 78 58 C74 57 74 57 71 55 C70.70703125 52.1796875 70.70703125 52.1796875 70.8125 48.875 C70.85310547 47.23144531 70.85310547 47.23144531 70.89453125 45.5546875 C70.92933594 44.71164063 70.96414062 43.86859375 71 43 C65.54143561 42.95000963 60.08300881 42.91400529 54.62426758 42.89013672 C52.77300694 42.88017074 50.92176165 42.86659307 49.07055664 42.84912109 C31.84893601 41.48450411 31.84893601 41.48450411 16.44897461 46.39648438 C15.17543271 48.33444523 15.17543271 48.33444523 14.0625 51.8125 C11.49397953 58.60226582 8.99940041 61.78980504 2.625 65.3125 C-1.01338181 66.26540952 -4.27710631 66.71305423 -8 66 C-11 64 -11 64 -13 61 C-13.67488811 56.27578322 -13.52128751 54.10773596 -11.5 49.8125 C-5.95432769 43.57361865 0.93673419 40.76160159 9 39 C9.99 39 10.98 39 12 39 C12.66 34.71 13.32 30.42 14 26 C13.38125 27.11375 12.7625 28.2275 12.125 29.375 C10.86718769 31.63906215 9.85384858 33.14615142 8 35 C1.8045977 35.56321839 1.8045977 35.56321839 -0.875 33.6875 C-5.38947684 26.91578474 -2.71785235 16.91467454 -1.5 9.4375 C-1.28537109 8.06754883 -1.28537109 8.06754883 -1.06640625 6.66992188 C-0.71703202 4.44557264 -0.36148178 2.2224079 0 0 Z " fill="#0DA5FF" transform="translate(68,88)"/>
<path d="M0 0 C2.84951943 2.24811332 3.8465084 3.53952521 5 7 C5.78122577 14.6560125 3.22469356 21.14782877 -1.4375 27.125 C-4.28379483 29.20765475 -5.55739916 29.49180012 -9 29 C-9.66 27.68 -10.32 26.36 -11 25 C-10.60167969 24.50371094 -10.20335938 24.00742188 -9.79296875 23.49609375 C-5.39371992 17.85520778 -1.31608115 12.52310734 -2 5 C-8.49744801 5.270727 -12.29751477 7.56405239 -17 12 C-21.73572337 17.43275625 -24.14896173 21.33825278 -24.0625 28.6875 C-24.05347656 29.68136719 -24.04445313 30.67523438 -24.03515625 31.69921875 C-24.02355469 32.45847656 -24.01195312 33.21773437 -24 34 C-20.93696389 35.29589989 -17.84584568 36.3930712 -14.6796875 37.40234375 C-13.89722656 37.65306641 -13.11476563 37.90378906 -12.30859375 38.16210938 C-10.68022499 38.68093955 -9.04998268 39.1939243 -7.41796875 39.70117188 C-6.63808594 39.95318359 -5.85820313 40.20519531 -5.0546875 40.46484375 C-4.34812012 40.687771 -3.64155273 40.91069824 -2.91357422 41.14038086 C-0.70928966 42.1305934 0.5054781 43.1041234 2 45 C2.59192433 50.22866489 1.89179534 53.61566514 -1 58 C-5.68255972 62.84442598 -9.83586139 65.78548213 -16.6875 66.25 C-20 66 -20 66 -22 64 C-22.125 61.375 -22.125 61.375 -22 59 C-21.33613281 58.89042969 -20.67226563 58.78085938 -19.98828125 58.66796875 C-12.93928071 57.59261846 -12.93928071 57.59261846 -7 54 C-6.10407917 50.40080577 -6.10407917 50.40080577 -6 47 C-6.68964844 46.75765625 -7.37929688 46.5153125 -8.08984375 46.265625 C-28.4778253 38.99419125 -28.4778253 38.99419125 -32.09765625 33.26171875 C-34.29726951 27.74840239 -34.16893292 20.81209485 -31.90234375 15.359375 C-27.91968888 9.11457216 -22.21382197 3.15594139 -15.16015625 0.47265625 C-10.21220135 -0.60998849 -4.98992375 -0.82839257 0 0 Z " fill="#0EA5FF" transform="translate(59,70)"/>
<path d="M0 0 C4.7734375 0.7421875 4.7734375 0.7421875 6.8125 3.0625 C7.204375 3.701875 7.59625 4.34125 8 5 C8.680625 4.154375 9.36125 3.30875 10.0625 2.4375 C13 0 13 0 16.625 0 C21.16129032 1.34408602 21.16129032 1.34408602 23 4 C23.33 4.99 23.66 5.98 24 7 C24.639375 6.030625 25.27875 5.06125 25.9375 4.0625 C28 1 28 1 29 0 C36.60344828 0.60344828 36.60344828 0.60344828 39 3 C39.38450513 9.15208215 38.53239767 14.94512717 37.5 21 C37.35691406 21.87011719 37.21382812 22.74023438 37.06640625 23.63671875 C36.71661973 25.75875695 36.3591135 27.87952028 36 30 C33.625 30.125 33.625 30.125 31 30 C29 28 29 28 28.76953125 25.96875 C28.87456488 19.93409052 29.28584191 13.99382687 30 8 C27.43036315 8.98914891 26.22140547 9.6237554 24.8046875 12.03125 C22.57449015 17.95345473 21.01053425 23.75064342 20 30 C17.21924522 30.2254666 15.55457725 30.35786823 13.171875 28.8203125 C11.54980639 26.30069926 11.86397524 24.82053676 12.25 21.875 C12.36730469 20.90691406 12.48460938 19.93882813 12.60546875 18.94140625 C12.73566406 17.97074219 12.86585937 17.00007813 13 16 C13.19098488 14.27121477 13.37885204 12.54208002 13.5625 10.8125 C13.7790625 8.9253125 13.7790625 8.9253125 14 7 C12.04105639 7.11306697 12.04105639 7.11306697 10 8 C8.77804077 10.2365347 8.77804077 10.2365347 8 13 C7.65839844 13.95777344 7.31679687 14.91554688 6.96484375 15.90234375 C6.62582031 16.90394531 6.28679687 17.90554687 5.9375 18.9375 C5.59589844 19.93652344 5.25429687 20.93554688 4.90234375 21.96484375 C4.00889219 24.97008991 3.44814509 27.89994478 3 31 C0.625 31.125 0.625 31.125 -2 31 C-4 29 -4 29 -4.375 25.0625 C-4.24977597 16.58483316 -1.89124341 8.2235316 0 0 Z " fill="#0FA6FF" transform="translate(100,88)"/>
<path d="M0 0 C0.928125 0.0825 1.85625 0.165 2.8125 0.25 C2.60753906 1.21679688 2.40257812 2.18359375 2.19140625 3.1796875 C0.66257265 10.52167716 -0.67588072 17.75213131 -1.1875 25.25 C-0.671875 24.445625 -0.15625 23.64125 0.375 22.8125 C2.8125 20.25 2.8125 20.25 6.25 19.1875 C9.8125 19.25 9.8125 19.25 12.75 20.6875 C15.52420552 24.13424019 15.12652429 27.03488102 14.8125 31.25 C14.41590535 34.16739711 13.86963489 37.04706784 13.3125 39.9375 C11.58364855 49.60948002 10.31966707 58.84300772 13.8125 68.25 C10.5 68.0625 10.5 68.0625 6.8125 67.25 C2.04051681 61.07256971 3.38513482 53.80407112 4.26953125 46.44921875 C4.62748331 43.88690003 4.9931919 41.32565121 5.3671875 38.765625 C5.9036302 34.53055109 5.96198511 30.5103256 5.8125 26.25 C1.99487056 27.70394823 0.85578816 29.38688447 -0.8125 33.0625 C-3.16358934 38.498046 -4.09587024 43.73285021 -4.73046875 49.59765625 C-5.1875 52.25 -5.1875 52.25 -7.1875 54.25 C-9.625 53.125 -9.625 53.125 -12.1875 51.25 C-13.74534555 45.9490262 -12.7871787 41.15414447 -11.859375 35.8359375 C-11.70970276 34.94387604 -11.56003052 34.05181458 -11.40582275 33.13272095 C-11.08777053 31.25431367 -10.76473307 29.37674448 -10.43701172 27.5 C-9.93837429 24.63003209 -9.46238658 21.75692254 -8.98828125 18.8828125 C-8.67583698 17.05445495 -8.36207942 15.22632123 -8.046875 13.3984375 C-7.90610535 12.54108002 -7.76533569 11.68372253 -7.62030029 10.80038452 C-5.77148528 0.45266551 -5.77148528 0.45266551 0 0 Z " fill="#0EA5FF" transform="translate(184.1875,72.75)"/>
<path d="M0 0 C4.75 0.75 4.75 0.75 7 3 C7.046875 5.07421875 7.046875 5.07421875 6.75 7.6875 C6.64300781 8.656875 6.53601563 9.62625 6.42578125 10.625 C5.65241683 16.7551547 4.85068842 22.87999881 4 29 C4.77730469 28.68289062 5.55460937 28.36578125 6.35546875 28.0390625 C8.57499666 27.16698802 10.67847264 26.51589497 13 26 C12.42105044 29.90790955 10.85471656 32.29553168 8 35 C4.42370779 35.50193575 2.15060737 35.80542516 -0.875 33.6875 C-5.38947684 26.91578474 -2.71785235 16.91467454 -1.5 9.4375 C-1.35691406 8.52419922 -1.21382813 7.61089844 -1.06640625 6.66992188 C-0.71703202 4.44557264 -0.36148178 2.2224079 0 0 Z " fill="#0EA5FF" transform="translate(68,88)"/>
<path d="M0 0 C0.8971875 0.309375 0.8971875 0.309375 1.8125 0.625 C2.41909385 7.2031733 1.95839981 11.52229998 -1.80078125 17.03125 C-3.1875 18.625 -3.1875 18.625 -6.1875 20.625 C-9.375 20.75 -9.375 20.75 -12.1875 20.625 C-11.19723654 13.54535524 -9.43488095 7.47302599 -5.1875 1.625 C-2.1875 -0.375 -2.1875 -0.375 0 0 Z " fill="#F8FBFF" transform="translate(161.1875,96.375)"/>
<path d="M0 0 C-0.88026056 1.92386845 -1.77993691 3.83885958 -2.6875 5.75 C-3.18636719 6.81734375 -3.68523437 7.8846875 -4.19921875 8.984375 C-6.12856098 12.21529084 -7.86613997 13.94678136 -11 16 C-14.1875 16.375 -14.1875 16.375 -17 16 C-19 14 -19 14 -19.1875 10.75 C-17.45187418 5.26907635 -13.94604249 3.57555115 -9 1 C-3.73170732 -1.24390244 -3.73170732 -1.24390244 0 0 Z " fill="#F5FAFF" transform="translate(78,135)"/>
<path d="M0 0 C6.73726571 0.49905672 15.20183812 1.31607405 20.82421875 5.2890625 C22.40725113 7.59261129 22.22151071 9.26803453 22 12 C19.47878568 11.37650642 16.95803069 10.75124639 14.4375 10.125 C13.73302734 9.95097656 13.02855469 9.77695313 12.30273438 9.59765625 C7.83975002 8.48705185 3.41512948 7.28798784 -1 6 C-1.042721 4.33388095 -1.04063832 2.66617115 -1 1 C-0.67 0.67 -0.34 0.34 0 0 Z " fill="#0EA5FF" transform="translate(151,127)"/>
<path d="M0 0 C3.69230769 0.69230769 3.69230769 0.69230769 5 2 C5.04063832 3.66617115 5.042721 5.33388095 5 7 C3.35 6.67 1.7 6.34 0 6 C-0.38218767 4.34385343 -0.71395102 2.67542976 -1 1 C-0.67 0.67 -0.34 0.34 0 0 Z " fill="#0DA4FF" transform="translate(178,134)"/>
</svg>
